<svg xmlns="http://www.w3.org/2000/svg" viewBox="0 0 32 32" role="img" aria-label="AlphaGen">
  <g stroke="#ef4444" stroke-width="2" stroke-linecap="round" fill="#ef4444">
    <!-- spikes -->
    <line x1="22" y1="16" x2="27" y2="16" />
    <line x1="20.2" y1="20.2" x2="23.8" y2="23.8" />
    <line x1="16" y1="22" x2="16" y2="27" />
    <line x1="11.8" y1="20.2" x2="8.2" y2="23.8" />
    <line x1="10" y1="16" x2="5" y2="16" />
    <line x1="11.8" y1="11.8" x2="8.2" y2="8.2" />
    <line x1="16" y1="10" x2="16" y2="5" />
    <line x1="20.2" y1="11.8" x2="23.8" y2="8.2" />
    <!-- spike knobs -->
    <circle cx="27" cy="16" r="1.8" stroke="none" />
    <circle cx="23.8" cy="23.8" r="1.8" stroke="none" />
    <circle cx="16" cy="27" r="1.8" stroke="none" />
    <circle cx="8.2" cy="23.8" r="1.8" stroke="none" />
    <circle cx="5" cy="16" r="1.8" stroke="none" />
    <circle cx="8.2" cy="8.2" r="1.8" stroke="none" />
    <circle cx="16" cy="5" r="1.8" stroke="none" />
    <circle cx="23.8" cy="8.2" r="1.8" stroke="none" />
  </g>
  <!-- body -->
  <circle cx="16" cy="16" r="6.5" fill="#ef4444" />
  <!-- surface receptors -->
  <circle cx="14" cy="14.5" r="1.4" fill="#0f1419" />
  <circle cx="18" cy="17.5" r="1.4" fill="#0f1419" />
</svg>
